<?xml version="1.0" standalone="no"?><!DOCTYPE svg PUBLIC "-//W3C//DTD SVG 1.1//EN" "http://www.w3.org/Graphics/SVG/1.1/DTD/svg11.dtd"><svg t="1780928258693" class="icon" viewBox="0 0 1024 1024" version="1.1" xmlns="http://www.w3.org/2000/svg" p-id="5067" xmlns:xlink="http://www.w3.org/1999/xlink" width="200" height="200"><path d="M853.333333 0a170.666667 170.666667 0 0 1 170.666667 170.666667v682.666666a170.666667 170.666667 0 0 1-170.666667 170.666667H170.666667a170.666667 170.666667 0 0 1-170.666667-170.666667V170.666667a170.666667 170.666667 0 0 1 170.666667-170.666667h682.666666z m-316.928 229.717333H442.026667V315.733333H260.352v38.826667l178.944-1.408v58.282667H296.405333v30.506666h295.466667s-2.773333 24.96-13.866667 55.466667c-12.501333 30.549333-23.594667 56.917333-23.594666 56.917333s-138.666667-48.554667-212.224-48.554666c-73.514667 0-162.304 30.506667-170.624 115.114666-8.32 84.608 41.642667 131.797333 112.384 148.437334 69.333333 16.64 134.528 0 191.402666-27.733334 56.874667-27.733333 112.384-90.197333 112.384-90.197333l294.058667 142.933333s18.048-27.776 31.914667-54.144c13.866667-26.368 24.96-55.466667 24.96-55.466666l-306.56-102.656 0.682666-1.024c3.626667-5.504 20.906667-32.853333 38.144-82.218667 20.821333-55.466667 23.594667-86.016 23.594667-86.016l-158.122667-1.365333V357.333333l191.402667-1.408v-38.826666h-191.402667V229.717333z m-15.274666 385.621334s-87.381333 106.794667-191.402667 106.794666c-104.064 0-124.842667-51.285333-124.842667-87.381333 0-36.053333 22.186667-76.288 109.568-81.834667 87.381333-5.546667 206.677333 62.421333 206.677334 62.421334z" fill="#3396FA" p-id="5068"></path></svg>